<?xml version="1.0" standalone="no"?>
<!DOCTYPE svg PUBLIC "-//W3C//DTD SVG 20010904//EN"
 "http://www.w3.org/TR/2001/REC-SVG-20010904/DTD/svg10.dtd">
<svg version="1.0" xmlns="http://www.w3.org/2000/svg"
 width="165.000000pt" height="154.000000pt" viewBox="0 0 165.000000 154.000000"
 preserveAspectRatio="xMidYMid meet">

<g transform="translate(0.000000,154.000000) scale(0.100000,-0.100000)"
fill="#000000" stroke="none">
<path d="M228 1513 c-20 -23 -100 -211 -121 -283 -39 -137 -46 -339 -16 -441
9 -29 8 -42 -6 -68 -11 -22 -19 -74 -25 -159 -7 -100 -13 -136 -31 -170 -41
-82 -20 -206 52 -307 26 -36 29 -46 20 -64 l-12 -21 471 0 470 0 -6 24 c-4 18
5 42 34 91 66 109 70 159 27 315 -8 30 -15 89 -15 131 l0 76 71 7 c99 10 267
60 341 102 83 47 159 104 153 114 -17 28 -322 54 -461 40 -47 -5 -115 -19
-151 -31 l-65 -21 -61 26 c-110 46 -202 59 -376 53 -86 -3 -168 -9 -182 -12
l-26 -7 3 194 c3 229 -5 330 -32 383 -22 46 -35 52 -56 28z m41 -50 c6 -21 13
-56 17 -78 5 -36 3 -42 -18 -52 -12 -6 -48 -34 -80 -62 -80 -73 -85 -69 -38
34 17 36 43 94 60 130 16 36 34 65 40 65 5 0 14 -17 19 -37z m1274 -594 c31
-7 57 -15 57 -19 0 -8 -132 -95 -185 -123 -17 -8 -48 -18 -68 -22 l-38 -7 41
68 c72 118 68 114 104 114 18 0 58 -5 89 -11z m-1174 -326 c41 -39 48 -80 19
-123 -37 -55 -107 -63 -155 -18 -35 32 -32 110 3 143 38 35 94 34 133 -2z
m552 -4 c58 -63 20 -156 -69 -166 -36 -4 -46 -1 -72 25 -24 24 -30 39 -30 73
0 61 37 99 98 99 36 0 49 -5 73 -31z m-304 -164 c2 -6 -3 -20 -11 -30 -15 -20
-15 -20 -37 1 -12 12 -18 27 -14 34 8 13 57 9 62 -5z m2 -91 c29 -15 53 -14
95 2 12 4 16 0 16 -15 0 -36 -55 -54 -112 -36 -39 11 -50 11 -73 -1 -38 -20
-82 -17 -105 6 -23 23 -26 50 -6 50 7 0 19 -7 26 -15 16 -20 48 -18 85 5 38
23 36 23 74 4z"/>
<path d="M306 505 c-8 -22 -8 -21 10 -39 21 -22 56 -3 52 27 -4 28 -52 37 -62
12z"/>
<path d="M787 513 c-14 -13 -7 -43 12 -53 23 -12 56 14 47 37 -3 8 -6 17 -6
19 0 7 -46 5 -53 -3z"/>
</g>
</svg>
